<?xml version="1.0" standalone="no"?>
<!DOCTYPE svg PUBLIC "-//W3C//DTD SVG 1.1//EN" "http://www.w3.org/Graphics/SVG/1.1/DTD/svg11.dtd" >
<svg xmlns="http://www.w3.org/2000/svg">
<metadata>
Created by FontForge 20120731 at Fri Jul 21 13:39:11 2017
 By admin
</metadata>
<defs>
<font id="iconfont" horiz-adv-x="1024" >
  <font-face 
    font-family="iconfont"
    font-weight="500"
    font-stretch="normal"
    units-per-em="1024"
    panose-1="2 0 6 3 0 0 0 0 0 0"
    ascent="896"
    descent="-128"
    x-height="792"
    bbox="-0.0116272 -160 1030 896"
    underline-thickness="0"
    underline-position="0"
    unicode-range="U+0078-E6B9"
  />
<missing-glyph 
 />
    <glyph glyph-name=".notdef" 
 />
    <glyph glyph-name=".notdef" 
 />
    <glyph glyph-name=".null" horiz-adv-x="0" 
 />
    <glyph glyph-name="nonmarkingreturn" horiz-adv-x="341" 
 />
    <glyph glyph-name="x" unicode="x" horiz-adv-x="1001" 
d="M281 543q-27 -1 -53 -1h-83q-18 0 -36.5 -6t-32.5 -18.5t-23 -32t-9 -45.5v-76h912v41q0 16 -0.5 30t-0.5 18q0 13 -5 29t-17 29.5t-31.5 22.5t-49.5 9h-133v-97h-438v97zM955 310v-52q0 -23 0.5 -52t0.5 -58t-10.5 -47.5t-26 -30t-33 -16t-31.5 -4.5q-14 -1 -29.5 -0.5
t-29.5 0.5h-32l-45 128h-439l-44 -128h-29h-34q-20 0 -45 1q-25 0 -41 9.5t-25.5 23t-13.5 29.5t-4 30v167h911zM163 247q-12 0 -21 -8.5t-9 -21.5t9 -21.5t21 -8.5q13 0 22 8.5t9 21.5t-9 21.5t-22 8.5zM316 123q-8 -26 -14 -48q-5 -19 -10.5 -37t-7.5 -25t-3 -15t1 -14.5
t9.5 -10.5t21.5 -4h37h67h81h80h64h36q23 0 34 12t2 38q-5 13 -9.5 30.5t-9.5 34.5q-5 19 -11 39h-368zM336 498v228q0 11 2.5 23t10 21.5t20.5 15.5t34 6h188q31 0 51.5 -14.5t20.5 -52.5v-227h-327z" />
    <glyph glyph-name="rili1" unicode="&#xe676;" 
d="M501 330zM414 216h-97v97h97v-97zM560 313h-97v-97h97v97zM706 313h-97v-97h97v97zM414 172h-97v-97h97v97zM560 172h-97v-97h97v97zM706 172h-97v-97h97v97zM742 508q0 -12 -8.5 -20.5t-21 -8.5t-21.5 8.5t-9 20.5v76q0 12 9 20.5t21.5 8.5t21 -8.5t8.5 -20.5v-76z
M339 584q0 12 -9 20.5t-21.5 8.5t-21 -8.5t-8.5 -20.5v-75q0 -13 8.5 -21.5t21 -8.5t21.5 8.5t9 21.5v75zM778 540v-31q0 -27 -19 -46t-46.5 -19t-47 19t-19.5 46v31h-271v-30q0 -28 -19.5 -47t-46.5 -19t-46.5 19t-19.5 47v30h-72v-590h677v590h-70zM783 16h-546v365h546
v-365z" />
    <glyph glyph-name="globe" unicode="&#xe64c;" 
d="M512 736q-91 0 -174 -35.5t-143 -95.5t-95.5 -143t-35.5 -174t35.5 -174t95.5 -143t143 -95.5t174 -35.5t174 35.5t142.5 95.5t95 143t35.5 174t-35.5 174t-95 143t-142.5 95.5t-174 35.5zM171 288q0 97 50 179q1 -4 2 -7t-1 -6q-19 -33 -20.5 -77.5t6.5 -78t21 -64.5
q14 -31 88.5 -63.5t104.5 -34.5q6 -1 12 -5.5t7 -6.5q17 -32 46 -58.5t63 -44.5t56.5 -27.5t44.5 -16.5q-67 -30 -139 -30q-93 0 -171.5 45.5t-124 124t-45.5 171.5zM722 19q-18 30 -24 91q-2 18 -0.5 53.5t-2.5 75t-17 45.5q-19 8 -71.5 -10t-84.5 -39q-79 -52 -114 -36
q-23 11 -31.5 39t2.5 50q6 12 25 18.5t30 7.5t20 0v0l26 2q5 0 7 4.5t-1 8.5q-15 19 -30 31q-32 23 0 92q13 33 5 61t-27 38q-16 9 -36.5 -1.5t-48.5 -37.5q-22 -21 -50.5 -23t-45.5 10q-3 2 -5 5q47 58 116 91.5t148 33.5q129 0 226 -86v0q-2 -45 -12 -62l-5 -8t-7 -12
t-6 -12.5t-5 -14t-1 -12.5t4 -12t11 -8q17 -8 61 -5t58 -4q17 -51 17 -105q0 -80 -35 -150.5t-96 -118.5z" />
    <glyph glyph-name="up" unicode="&#xe682;" 
d="M24 53l22 -23q9 -9 22 -9t23 9l424 430l420 -425q9 -9 21.5 -9t21.5 9l22 22q9 9 9 22t-9 22l-458 464q-5 5 -12 8q-9 7 -20.5 6t-20.5 -9l-465 -472q-9 -9 -9 -22.5t9 -22.5z" />
    <glyph glyph-name="xiangshang" unicode="&#xe677;" 
d="M120 68l-120 120l512 512l512 -512l-120 -120l-392 392z" />
    <glyph glyph-name="xiangxia" unicode="&#xe6b9;" 
d="M0 570l512 -491l511 491l-127 123l-384 -369l-384 369z" />
    <glyph glyph-name="pifu" unicode="&#xe601;" horiz-adv-x="1026" 
d="M332 692l147 -43l36 -10l35 10l146 42l202 -44v-142h-128v-448h-511v448h-131v149zM691 823l-176 -51l-177 51l-338 -63v-383h131v-448h767v448h128v373z" />
    <glyph glyph-name="fuzhi" unicode="&#xe602;" 
d="M256 896v-192h128v64h512v-512h-64v-128h192v768h-768zM256 640h-256v-768h768v768h-512zM640 0h-512v512h512v-512z" />
    <glyph glyph-name="shanchu" unicode="&#xe603;" 
d="M576 512h128v-384h-128v384zM832 576v-576h-640v576h-128v-704h896v704h-128zM320 512h128v-384h-128v384zM640 768v128h-256v-128h-384v-128h1024v128h-384z" />
    <glyph glyph-name="bianji" unicode="&#xe604;" 
d="M0 -128v1024h640v-128h-512v-768h768v512h128v-640h-1024zM651 614l272 271l90 -90l-271 -272zM256 640h256v-128h-256v128zM256 384h384v-128h-384v128z" />
    <glyph glyph-name="huihua" unicode="&#xe605;" 
d="M896 683v-512h-5l-34 -25l-105 -78l-105 78l-34 25h-485v512h768zM1024 811h-1024v-768h571l181 -134l181 134h91v768zM192 492h128v-128h-128v128zM448 492h128v-128h-128v128zM704 492h128v-128h-128v128z" />
    <glyph glyph-name="dingwei" unicode="&#xe606;" 
d="M512 768q61 0 115.5 -14t102 -43t75 -80t27.5 -119q0 -75 -95.5 -206.5t-224.5 -258.5q-129 127 -224.5 258.5t-95.5 206.5q0 68 27.5 119t75 80t102 43t115.5 14zM512 896q-193 0 -320.5 -102.5t-127.5 -281.5q0 -175 282 -477q90 -96 166 -163q9 8 25.5 23t63 60.5
t88.5 91t94 109.5t89 121.5t62.5 121t25.5 113.5q0 179 -127.5 281.5t-320.5 102.5zM512 330q-79 0 -135.5 56.5t-56.5 135.5t56.5 135.5t135.5 56.5t135.5 -56.5t56.5 -135.5t-56.5 -135.5t-135.5 -56.5zM512 586q-26 0 -45 -19t-19 -45t19 -45t45 -19t45 19t19 45t-19 45
t-45 19z" />
    <glyph glyph-name="huishouzhan" unicode="&#xe607;" 
d="M832 576v-576h-640v576h-128v-704h896v704h-128zM640 768v128h-256v-128h-384v-128h1024v128h-384zM519 512v64l-128 -128l128 -128v64q39 -3 65.5 -31.5t26.5 -67.5q0 -41 -29 -70.5t-70 -29.5t-70 29.5t-29 70.5h-128q0 -94 66.5 -161t160.5 -67t160.5 67t66.5 161
q0 92 -64 158t-156 69z" />
    <glyph glyph-name="sousuo" unicode="&#xe608;" 
d="M1010 -37l-216 216q39 50 66.5 130t27.5 143v0q0 90 -35.5 172.5t-94.5 142t-141.5 94.5t-172.5 35t-172.5 -35t-142 -94.5t-94.5 -142t-35 -172.5t35 -172.5t94.5 -141.5t142 -94.5t172.5 -35.5v0q59 0 134.5 24.5t123.5 58.5l218 -218zM127 452q0 131 93 224t224 93
t224 -93t93 -224t-93 -224t-224 -93t-224 93t-93 224z" />
    <glyph glyph-name="daochu" unicode="&#xe609;" horiz-adv-x="1026" 
d="M894 383v-383h-766v766h383v128h-511v-1022h1022v511h-128zM639 894h383v-128h-383v128zM894 894h128v-383h-128v383zM934 896l90 -90l-361 -362l-91 91z" />
    <glyph glyph-name="chakan" unicode="&#xe60a;" 
d="M1024 896v-640h-128v512h-768v-768h512v-128h-640v1024h1024zM892 -88l-181 181l90 90l181 -181zM205 640h640v-128h-640v128zM205 384h256v-128h-256v128zM682 19q-79 0 -135.5 56t-56.5 135.5t56.5 136t135.5 56.5t135.5 -56.5t56.5 -136t-56.5 -135.5t-135.5 -56z
M682 275q-26 0 -45 -19t-19 -45.5t19 -45t45 -18.5t45 18.5t19 45t-19 45.5t-45 19z" />
    <glyph glyph-name="paas" unicode="&#xe60b;" 
d="M512 896q-139 0 -257 -68.5t-186.5 -186.5t-68.5 -257t68.5 -257t186.5 -186.5t257 -68.5t257 68.5t186.5 186.5t68.5 257t-68.5 257t-186.5 186.5t-257 68.5zM512 0q-159 0 -271.5 112.5t-112.5 271.5t112.5 271.5t271.5 112.5t271.5 -112.5t112.5 -271.5t-112.5 -271.5
t-271.5 -112.5zM740 446q0 77 -69.5 133t-170.5 60v1h-128v-512h128v125q101 5 170.5 60.5t69.5 132.5zM500 381v130q48 -3 80 -24.5t32 -40t-32 -40t-80 -25.5z" />
    <glyph glyph-name="guanbi" unicode="&#xe60c;" 
d="M1024 805l-91 91l-421 -421l-421 421l-91 -91l421 -421l-421 -421l91 -90l421 421l421 -421l91 90l-421 421z" />
    <glyph glyph-name="daoru" unicode="&#xe60d;" horiz-adv-x="1026" 
d="M894 383v-383h-766v766h383v128h-511v-1022h1022v511h-128zM575 574h383v-127h-383v127zM575 830h127v-383h-127v383zM663 444l-91 91l362 361l90 -90z" />
    <glyph glyph-name="weitongguo" unicode="&#xe60e;" 
d="M512 896q-139 0 -257 -68.5t-186.5 -186.5t-68.5 -257t68.5 -257t186.5 -186.5t257 -68.5t257 68.5t186.5 186.5t68.5 257t-68.5 257t-186.5 186.5t-257 68.5zM512 0q-159 0 -271.5 112.5t-112.5 271.5t112.5 271.5t271.5 112.5t271.5 -112.5t112.5 -271.5t-112.5 -271.5
t-271.5 -112.5zM648 610l-136 -135l-136 135l-90 -90l135 -136l-135 -136l90 -90l136 135l136 -135l90 90l-135 136l135 136z" />
    <glyph glyph-name="paixu" unicode="&#xe60f;" 
d="M256 832h768v-128h-768v128zM0 832h128v-128h-128v128zM256 448h768v-128h-768v128zM0 448h128v-128h-128v128zM256 64h768v-128h-768v128zM0 64h128v-128h-128v128z" />
    <glyph glyph-name="xiala" unicode="&#xe610;" 
d="M512 239l-327 327h-181l508 -508l508 508h-181z" />
    <glyph glyph-name="xiaoxi" unicode="&#xe611;" 
d="M1024 768h-128v-640h-768v640h-128v-768h1024v768zM715 640l-203 -203l-203 203h406zM1024 768h-1024l512 -512z" />
    <glyph glyph-name="xinjian" unicode="&#xe612;" 
d="M1024 448h-448v448h-128v-448h-448v-128h448v-448h128v448h448v128z" />
    <glyph glyph-name="tongxunlu" unicode="&#xe613;" horiz-adv-x="1029" 
d="M646 834h384v-128h-384v128zM837 66h192v-128h-192v128zM709 450h320v-128h-320v128zM570 402q70 74 70 176q0 106 -75 181t-181 75t-181 -75t-75 -181q0 -102 70 -176q-90 -50 -144 -139.5t-54 -196.5v-128h768v128q0 107 -54 196.5t-144 139.5zM384 706
q53 0 90.5 -37.5t37.5 -90.5t-37.5 -90.5t-90.5 -37.5t-90.5 37.5t-37.5 90.5t37.5 90.5t90.5 37.5zM128 66q0 106 75 181t181 75t181 -75t75 -181h-512z" />
    <glyph glyph-name="tongguo" unicode="&#xe614;" 
d="M512 896q-139 0 -257 -68.5t-186.5 -186.5t-68.5 -257t68.5 -257t186.5 -186.5t257 -68.5t257 68.5t186.5 186.5t68.5 257t-68.5 257t-186.5 186.5t-257 68.5zM512 0q-159 0 -271.5 112.5t-112.5 271.5t112.5 271.5t271.5 112.5t271.5 -112.5t112.5 -271.5t-112.5 -271.5
t-271.5 -112.5zM432 116l-222 222l91 91l131 -132l291 291l91 -91z" />
    <glyph glyph-name="fanhui" unicode="&#xe615;" 
d="M1023 448h-777l267 267v181l-512 -512l512 -512v181l-267 267h777v128z" />
    <glyph glyph-name="lianjie" unicode="&#xe616;" 
d="M304 448h384v-128h-384v128zM384 640v128h-384v-768h384v128h-256v512h256zM896 768h-256v-128h256v-512h-256v-128h384v768h-128z" />
    <glyph glyph-name="nan" unicode="&#xe617;" 
d="M896 896h-256v-128h165l-89 -89q-49 37 -127.5 63t-139.5 26h-1q-122 0 -225 -60t-163 -163t-60 -225t60 -225t163 -163t225 -60t225 60t163 163t60 225v1q0 61 -26 139.5t-63 127.5l89 89v-165h128v384h-128zM448 0q-132 0 -226 94t-94 226t94 226t226 94t226 -94
t94 -226t-94 -226t-226 -94z" />
    <glyph glyph-name="shezhi" unicode="&#xe618;" 
d="M192 896h-128v-128h-64v-128h64v-768h128v768h64v128h-64v128zM576 896h-128v-432h-64v-128h64v-464h128v464h64v128h-64v432zM1024 128h-64v768h-128v-768h-64v-128h64v-128h128v128h64v128z" />
    <glyph glyph-name="shoucang" unicode="&#xe619;" 
d="M719 706q73 0 124 -53.5t51 -128.5q0 -74 -64 -141q-159 -149 -319 -297q-278 260 -315 295q-66 82 -66 143q0 75 51 128.5t124 53.5q51 0 118 -65l89 -85l89 85q67 65 118 65zM719 834q-103 0 -207 -101q-104 101 -207 101q-126 0 -214.5 -91t-88.5 -219q0 -109 99 -229
q2 -3 104.5 -99t204 -191l101.5 -95q405 378 409 382q102 105 102 232q0 128 -88.5 219t-214.5 91z" />
    <glyph glyph-name="nv" unicode="&#xe61a;" 
d="M1024 805l-91 91l-96 -97l-91 91l-90 -91l90 -90l-30 -30q-49 37 -127.5 63t-139.5 26h-1q-122 0 -225 -60t-163 -163t-60 -225t60 -225t163 -163t225 -60t225 60t163 163t60 225v1q0 61 -26 139.5t-63 127.5l30 30l90 -90l91 90l-91 91zM448 0q-132 0 -226 94t-94 226
t94 226t226 94t226 -94t94 -226t-94 -226t-226 -94z" />
    <glyph glyph-name="xianshiziduan" unicode="&#xe61b;" 
d="M0 832h1024v-128h-1024v128zM0 448h384v-128h-384v128zM0 64h384v-128h-384v128zM652 143l-136 136l-90 -91l181 -181l45 -45l362 362l-90 90z" />
    <glyph glyph-name="wangluo" unicode="&#xe61c;" 
d="M896 -128q0 182 -71 348t-191 286t-286 191t-348 71v128q139 0 272 -37t245 -103t206.5 -160.5t160.5 -206.5t103 -245t37 -272h-128zM704 -128h-128q0 156 -77 289t-210 210t-289 77v128q143 0 273.5 -56t224.5 -150t150 -224.5t56 -273.5zM384 -128h-128q0 106 -75 181
t-181 75v128q159 0 271.5 -112.5t112.5 -271.5z" />
    <glyph glyph-name="xiaoxi-1" unicode="&#xe61d;" 
d="M896 768h-896v-768h1024v768h-128zM715 640l-203 -203l-203 203h406zM128 128v512l384 -384l384 384v-512h-768z" />
    <glyph glyph-name="yidongweizhi" unicode="&#xe61e;" 
d="M448 512h128v256h64l-128 128l-128 -128h64v-256zM384 448h-256v64l-128 -128l128 -128v64h256v128zM1024 384l-128 128v-64h-256v-128h256v-64zM576 256h-128v-256h-64l128 -128l128 128h-64v256z" />
    <glyph glyph-name="yingyong" unicode="&#xe61f;" 
d="M0 448h448v448h-448v-448zM128 768h192v-192h-192v192zM576 896v-448h448v448h-448zM896 576h-192v192h192v-192zM0 -128h448v448h-448v-448zM128 192h192v-192h-192v192zM576 -128h448v448h-448v-448zM704 192h192v-192h-192v192z" />
    <glyph glyph-name="shaixuan" unicode="&#xe620;" 
d="M755 767l-150 -185q-12 -14 -20.5 -38t-8.5 -42v-422l-128 64v358v0q0 18 -8.5 42t-20.5 38l-150 185h486zM1024 895h-1024l320 -393v-437l384 -192v629z" />
    <glyph glyph-name="tishi" unicode="&#xe621;" 
d="M512 768q159 0 271.5 -112.5t112.5 -271.5t-112.5 -271.5t-271.5 -112.5t-271.5 112.5t-112.5 271.5t112.5 271.5t271.5 112.5zM512 896q-139 0 -257 -68.5t-186.5 -186.5t-68.5 -257t68.5 -257t186.5 -186.5t257 -68.5t257 68.5t186.5 186.5t68.5 257t-68.5 257
t-186.5 186.5t-257 68.5zM512 631zM448 631.5q0 -26.5 19 -45.5t45 -19t45 19t19 45.5t-19 45t-45 18.5t-45 -18.5t-19 -45zM448 503h128v-384h-128v384z" />
    <glyph glyph-name="xiaoxitixing" unicode="&#xe622;" 
d="M512 -127q53 0 90.5 37.5t37.5 90.5h-256q0 -53 37.5 -90.5t90.5 -37.5zM946 200q-24 15 -40 46.5t-22 66t-9 67t-2 53.5l1 21q0 58 -11.5 108t-29.5 86t-44 65.5t-52 48t-57 33t-55 21.5t-49 12v1v2q0 26 -19 45t-45 19t-45 -19t-19 -45v-2v-1q-25 -5 -49 -12t-55 -21.5
t-57 -33t-52 -48t-44 -65.5t-29.5 -86t-11.5 -108q1 -8 1 -22t-2.5 -51.5t-8.5 -69t-22 -64t-40 -47.5q-29 -19 -40.5 -41t-5.5 -40t20.5 -31t31.5 -15q25 -4 175 -4l253 2q134 -2 253 -2q150 0 175 4q17 2 31.5 15t20.5 31t-5.5 40t-40.5 41zM765 197q-97 0 -251 2h-2h-2
l-8 -0.5t-22 -0.5h-32.5t-41 -0.5t-46.5 -0.5h-50.5h-50.5h-23q50 106 42 260q1 156 106 215q60 33 127 35h2q67 -2 127 -35q105 -59 106 -215q-8 -154 42 -260h-23z" />
    <glyph glyph-name="diannao" unicode="&#xe623;" 
d="M960 892h-896q-26 0 -45 -18.5t-19 -45.5v-640q0 -26 19 -45t45 -19h384v-120h-320v-128h768v128h-320v120h384q26 0 45 19t19 45v640q0 27 -19 45.5t-45 18.5zM896 252h-768v512h768v-512z" />
    <glyph glyph-name="xiugai" unicode="&#xe624;" 
d="M436 398l-46 -136l136 46l362 362l-90 90zM843 805l90 91l91 -91l-91 -90zM896 0h-768v768h640v128h-704q-26 0 -45 -19t-19 -45v-896q0 -26 19 -45t45 -19h896q26 0 45 19t19 45v608h-128v-544z" />
    <glyph glyph-name="yingpan" unicode="&#xe625;" 
d="M807 64zM775 64q0 -13 9.5 -22.5t22.5 -9.5t22.5 9.5t9.5 22.5t-9.5 22.5t-22.5 9.5t-22.5 -9.5t-9.5 -22.5zM679 64zM647 64q0 -13 9.5 -22.5t22.5 -9.5t22.5 9.5t9.5 22.5t-9.5 22.5t-22.5 9.5t-22.5 -9.5t-9.5 -22.5zM1022 93l-57 675q0 53 -38 90.5t-92 37.5h-646
q-54 0 -92 -37.5t-38 -90.5l-57 -675q-2 -14 -2 -29q0 -79 56.5 -135.5t135.5 -56.5h640q79 0 135.5 56.5t56.5 135.5q0 13 -2 29zM188 757l1 6v5h646v-5l1 -6l43 -507q-23 6 -47 6h-640q-23 0 -47 -6zM832 0h-640q-26 0 -45 19t-19 45t19 45t45 19h640q26 0 45 -19t19 -45
t-19 -45t-45 -19z" />
    <glyph glyph-name="zhankai" unicode="&#xe626;" 
d="M513 320l-509 282l71 110l438 -243l438 243l71 -110zM513 5l-509 282l71 110l438 -243l438 243l71 -110z" />
    <glyph glyph-name="cipan" unicode="&#xe627;" 
d="M896 896h-896v-1024h1024v896zM896 0h-768v512h768v-512zM128 640v128h130v-64h128v64h457l53 -53v-75h-768zM512 67q80 0 136 56.5t56 136t-56 135.5t-136 56t-136 -56t-56 -135.5t56 -136t136 -56.5zM512 387q53 0 90.5 -37.5t37.5 -90.5t-37.5 -90.5t-90.5 -37.5
t-90.5 37.5t-37.5 90.5t37.5 90.5t90.5 37.5zM512 259zM448 259.5q0 -26.5 19 -45.5t45 -19t45 19t19 45.5t-19 45t-45 18.5t-45 -18.5t-19 -45z" />
    <glyph glyph-name="home" unicode="&#xe628;" 
d="M1023 383l-509 510l-513 -513h127v-505h320v240h128v-240h320v505h123zM704 3v240h-384v-240h-64v451l258 258l254 -255v-453h-64v-1z" />
    <glyph glyph-name="tuandui" unicode="&#xe629;" 
d="M571 340q70 74 70 176q0 106 -75 181t-181 75t-181 -75t-75 -181q0 -102 70 -176q-90 -51 -144 -140.5t-54 -195.5v-128h768v128q0 106 -54 195.5t-144 140.5zM385 644q53 0 90.5 -38t37.5 -90.5t-37.5 -90t-90.5 -37.5t-90.5 37.5t-37.5 90t37.5 90.5t90.5 38zM129 4
q0 106 75 181t181 75t181 -75t75 -181h-512zM825 461q70 74 70 175q0 107 -75 181.5t-181 74.5q-112 0 -188 -82q1 0 4.5 0.5t4.5 0.5q83 0 151 -50q14 3 28 3q53 0 90.5 -37.5t37.5 -90.5q0 -64 -53 -103q-3 -36 -23 -81t-46 -71l0.5 -0.5l0.5 -0.5q104 -3 176.5 -77
t72.5 -179h-59q8 -39 8 -80q0 -23 -3 -48h182v128q0 107 -54 196.5t-144 140.5z" />
    <glyph glyph-name="wangye" unicode="&#xe62a;" 
d="M0 832v-896h1024v896h-1024zM896 64h-768v384h768v-384zM128 576v128h768v-128h-768zM256 372h512v-64h-512v64zM320 254h384v-64h-384v64zM220 643zM188 643q0 -13 9.5 -22.5t22.5 -9.5t22.5 9.5t9.5 22.5t-9.5 22.5t-22.5 9.5t-22.5 -9.5t-9.5 -22.5zM476 643zM444 643
q0 -13 9.5 -22.5t22.5 -9.5t22.5 9.5t9.5 22.5t-9.5 22.5t-22.5 9.5t-22.5 -9.5t-9.5 -22.5zM348 643zM316 643q0 -13 9.5 -22.5t22.5 -9.5t22.5 9.5t9.5 22.5t-9.5 22.5t-22.5 9.5t-22.5 -9.5t-9.5 -22.5z" />
    <glyph glyph-name="shouji" unicode="&#xe62b;" 
d="M779 896h-534q-22 0 -37.5 -18.5t-15.5 -45.5v-896q0 -27 15.5 -45.5t37.5 -18.5h534q22 0 37.5 18.5t15.5 45.5v896q0 27 -15.5 45.5t-37.5 18.5zM512 -95h-1q-13 0 -22.5 9t-9.5 22.5t9.5 23t22.5 9.5h1q13 -1 22 -10t9 -22t-9 -22.5t-22 -9.5zM704 0h-384v768h384
v-768z" />
    <glyph glyph-name="shijian" unicode="&#xe62c;" 
d="M512 896q-139 0 -257 -68.5t-186.5 -186.5t-68.5 -257t68.5 -257t186.5 -186.5t257 -68.5t257 68.5t186.5 186.5t68.5 257t-68.5 257t-186.5 186.5t-257 68.5zM512 0q-159 0 -271.5 112.5t-112.5 271.5t112.5 271.5t271.5 112.5t271.5 -112.5t112.5 -271.5t-112.5 -271.5
t-271.5 -112.5zM581 704h-128v-256h-64v-128h64v-64h128v64h192v128h-192v256z" />
    <glyph glyph-name="shuaxin" unicode="&#xe62d;" 
d="M512 896h-155l241 -240l76 76q100 -46 161 -140t61 -208q0 -159 -112.5 -271.5t-271.5 -112.5t-271.5 112.5t-112.5 271.5q0 79 30.5 150t86.5 126l-89 92q-75 -73 -115.5 -168t-40.5 -200q0 -104 40.5 -199t109 -163.5t163.5 -109t199 -40.5t199 40.5t163.5 109
t109 163.5t40.5 199t-40.5 199t-109 163.5t-163.5 109t-199 40.5z" />
    <glyph glyph-name="suoxiao" unicode="&#xe62e;" 
d="M801 178q39 50 66.5 130t27.5 143v1q0 90 -35 172t-94.5 141.5t-142 95t-172.5 35.5t-172.5 -35.5t-142 -95t-94.5 -141.5t-35 -172.5t35 -172.5t94.5 -141.5t142 -94.5t172.5 -35v0q59 0 134.5 24t123.5 59l218 -219l90 90zM451 134q-131 0 -224 93t-93 224.5t93 224.5
t224 93t224 -93t93 -224.5t-93 -224.5t-224 -93zM640 515h-384v-128h384v128z" />
    <glyph glyph-name="suoding" unicode="&#xe62f;" 
d="M944 452q0 25 -16.5 43.5t-39.5 18.5h-56v60q0 133 -93.5 226.5t-226.5 93.5t-226.5 -93.5t-93.5 -226.5v-60h-56q-23 0 -39.5 -18.5t-16.5 -43.5l-16 -516q0 -25 16.5 -43.5t39.5 -18.5h784q23 0 39.5 18.5t16.5 43.5zM320 574q0 79 56.5 135.5t135.5 56.5t135.5 -56.5
t56.5 -135.5v-60h-384v60zM194 2l12 384h612l12 -384h-636z" />
    <glyph glyph-name="wenben" unicode="&#xe630;" 
d="M0 896v-1024h1024v1024h-1024zM896 0h-768v768h768v-768zM256 680h512v-128h-512v128zM259 446h506v-128h-506v128zM259 212h506v-128h-506v128z" />
    <glyph glyph-name="jiesuo" unicode="&#xe631;" 
d="M816 670q-31 99 -115 161.5t-190 62.5q-87 0 -161 -43t-116.5 -116.5t-42.5 -160.5v-60h-56q-23 0 -39.5 -18.5t-16.5 -43.5l-16 -516q0 -25 16.5 -43.5t39.5 -18.5h783q24 0 40.5 18.5t16.5 43.5l-16 516q0 25 -16.5 43.5t-40.5 18.5h-567v60q0 79 56 135.5t136 56.5
q65 0 116.5 -39.5t68.5 -101.5zM193 2l12 384h612l12 -384h-636z" />
    <glyph glyph-name="shezhi-1" unicode="&#xe632;" 
d="M992 372l-33 19l33 19q13 8 22.5 24t9.5 31q0 17 -9 32l-159 276q-8 14 -24 23t-31 9q-18 0 -32 -8l-34 -19v38q0 26 -18.5 45t-45.5 19h-318q-27 0 -45.5 -19t-18.5 -45v-38l-34 19q-14 8 -32 8q-15 0 -31 -9t-24 -23l-159 -276q-9 -15 -9 -32q0 -8 2 -16
q3 -11 11.5 -22.5t18.5 -16.5l33 -19l-33 -19q-13 -8 -22.5 -24t-9.5 -32q0 -17 9 -32l159 -276q8 -13 24 -22.5t31 -9.5q18 0 32 9l34 19v-38q0 -27 18.5 -45.5t45.5 -18.5h318q27 0 45.5 18.5t18.5 45.5v38l34 -19q14 -9 32 -9q15 0 31 9.5t24 22.5l159 276q9 15 9 32
q0 16 -9.5 32t-22.5 24zM799 335l74 -42l-96 -166l-74 43q-14 9 -32 9q-26 0 -45 -19t-19 -45v0v-85h-190v85q0 26 -19 45t-45 19q-18 0 -32 -9l-74 -43l-96 166l74 42q13 8 22.5 24t9.5 31.5t-9.5 32t-22.5 23.5l-74 43l96 165l74 -42q14 -9 32 -9q26 0 45 18.5t19 45.5v0
v85h190v-85q0 -27 19 -45.5t45 -18.5q18 0 32 9l74 42l96 -165l-74 -43q-13 -7 -22.5 -23.5t-9.5 -32t9.5 -31.5t22.5 -24zM512 583q-80 0 -136 -56.5t-56 -136t56 -135.5t136 -56t136 56t56 135.5t-56 136t-136 56.5zM512 327q-26 0 -45 18.5t-19 45t19 45.5t45 19t45 -19
t19 -45.5t-19 -45t-45 -18.5z" />
    <glyph glyph-name="user" unicode="&#xe633;" 
d="M720 333q52 45 82 108t30 135q0 132 -94 226t-226 94t-226 -94t-94 -226q0 -72 30 -135t82 -108q-108 -57 -174 -163.5t-66 -233.5v-64h896v64q0 127 -66 233.5t-174 163.5zM320 576q0 79 56.5 135.5t135.5 56.5t135.5 -56.5t56.5 -135.5t-56.5 -135.5t-135.5 -56.5
t-135.5 56.5t-56.5 135.5zM198 0q23 110 111 183t203 73t203 -73t111 -183h-628z" />
    <glyph glyph-name="yun" unicode="&#xe634;" 
d="M853 23h-623q-4 0 -8 1q-94 5 -158 72t-64 161q0 80 48 142.5t123 83.5q8 66 58.5 111t117.5 45q39 0 74 -16q36 50 105 86t131 36v0q120 0 205.5 -85.5t85.5 -205.5q0 -38 -19 -96q43 -23 69 -65t26 -92q0 -69 -46 -119.5t-114 -57.5q-5 -1 -11 -1v0zM235 151h612
q1 1 2 1q20 1 33.5 15t13.5 34t-14.5 34.5t-34.5 14.5q-14 0 -29.5 8t-23.5 20q-9 13 -10.5 28.5t1 25t8.5 26.5q27 71 27 96q0 67 -48 115t-115 48q-53 0 -95.5 -31t-58.5 -82q-6 -18 -24 -31t-37 -13q-14 0 -30 8.5t-24 20.5q-6 9 -18 15.5t-23 6.5q-20 0 -34.5 -14.5
t-14.5 -34.5v-12q1 -13 0.5 -23.5t-4.5 -22t-14 -21.5q-8 -8 -21.5 -14t-24.5 -6q-44 0 -75 -31t-31 -75v0q0 -43 30 -74t73 -31q2 0 4 -1z" />
    <glyph glyph-name="wenjianjia" unicode="&#xe635;" 
d="M640 832l-128 -256h-512v-640h1024v896h-384zM896 448v-384h-768v384h384q33 0 66.5 20.5t47.5 50.5l93 185h177v-256zM0 768h384v-128h-384v128z" />
    <glyph glyph-name="biaoge" unicode="&#xe636;" 
d="M896 896h-896v-1024h2v0h999v0h23v1024h-128zM128 408h227v-166h-227v166zM896 242h-205v166h205v-166zM627 242h-208v166h208v-166zM128 178h227v-178h-227v178zM419 178h208v-178h-208v178zM691 178h205v-178h-205v178zM896 472h-205v168h205v-168zM627 472h-208v168
h208v-168zM355 472h-227v168h227v-168zM896 704h-768v64h768v-64z" />
    <glyph glyph-name="chakan-1" unicode="&#xe637;" 
d="M512 727q-171 0 -310.5 -95.5t-201.5 -249.5q62 -154 201.5 -249.5t310.5 -95.5t310.5 95.5t201.5 249.5q-62 154 -201.5 249.5t-310.5 95.5zM512 165q-116 0 -215 58.5t-155 158.5q56 101 155 159t215 58t215 -58t155 -159q-56 -100 -155 -158.5t-215 -58.5zM512 574
q-79 0 -135.5 -56t-56.5 -135.5t56.5 -136t135.5 -56.5t135.5 56.5t56.5 136t-56.5 135.5t-135.5 56zM512 318q-26 0 -45 19t-19 45.5t19 45t45 18.5t45 -18.5t19 -45t-19 -45.5t-45 -19z" />
    <glyph glyph-name="fujian" unicode="&#xe638;" 
d="M937 367l-442 442q-86 87 -208 87q-119 0 -203 -84q-85 -84 -84 -205t86 -206q19 -19 46 -19v0h1q26 0 44.5 18.5t18.5 44.5v1q0 27 -19 46q-47 47 -47.5 114t46.5 114q46 47 113 47t116 -48l442 -442q47 -48 48 -115v-2q0 -27 -13.5 -60t-33 -52.5t-52.5 -33t-60 -13.5
h-1v0q-28 0 -62 14t-53 34l-242 242q-14 14 -14.5 34t14.5 34q14 14 34.5 14t34.5 -14l161 -161q19 -20 46 -20v0v0q26 0 45 19t18.5 45.5t-19.5 45.5l-161 161q-53 53 -127 53v0q-30 0 -66.5 -15t-57.5 -36t-36.5 -57.5t-15.5 -66.5v-1q1 -74 53 -126l242 -242
q86 -86 207 -86q120 0 204 84q85 85 84 205.5t-87 205.5z" />
    <glyph glyph-name="jiazai" unicode="&#xe639;" 
d="M168 545q46 100 140 161.5t208 61.5q80 0 152.5 -31.5t127.5 -90.5q18 -19 33 -41l105 74q-20 29 -44 54q-63 67 -172.5 114.5t-201.5 48.5q-104 0 -199 -41t-163.5 -109.5t-109 -163t-40.5 -198.5v-155l240 240zM780 299l76 -76q-46 -100 -140 -161.5t-208 -61.5
q-80 0 -152.5 31.5t-127.5 90.5q-18 19 -33 41l-105 -74q20 -29 44 -54q63 -67 172.5 -114.5t201.5 -48.5q104 0 199 41t163.5 109.5t109 163t40.5 198.5v155z" />
    <glyph glyph-name="fangda" unicode="&#xe63a;" 
d="M799 176q39 50 66.5 129.5t27.5 141.5v1q0 89 -35 171t-94.5 141t-141 94t-171 35t-171.5 -35t-141 -94t-94 -141t-35 -171.5t35 -171t94 -141t141 -94.5t171 -35h1q58 0 133 24.5t123 58.5l217 -217l89 89zM451.5 132q-130.5 0 -223 92.5t-92.5 223t92.5 223t223 92.5
t223 -92.5t92.5 -223t-92.5 -223t-223 -92.5zM512 638h-127v-127h-127v-127h127v-127h127v127h127v127h-127v127z" />
    <glyph glyph-name="jinzhi" unicode="&#xe63b;" 
d="M512 896q-139 0 -257 -68.5t-186.5 -186.5t-68.5 -257t68.5 -257t186.5 -186.5t257 -68.5t257 68.5t186.5 186.5t68.5 257t-68.5 257t-186.5 186.5t-257 68.5zM512 768q122 0 222 -71l-535 -535q-29 41 -50 106t-21 116v0q0 159 112.5 271.5t271.5 112.5zM512 0v0
q-51 0 -116 21t-106 50l535 535q29 -41 50 -106t21 -116v0q0 -159 -112.5 -271.5t-271.5 -112.5z" />
    <glyph glyph-name="tupian" unicode="&#xe63c;" 
d="M0 896v-1024h768l256 256v768h-1024zM128 260l70 70l70 -71l-140 -182v183zM715 0h-485l320 415l290 -290zM896 250l-358 358l-191 -247l-149 150l-70 -70v327h768v-518zM770 627zM706 627.5q0 -26.5 19 -45.5t45.5 -19t45 19t18.5 45.5t-18.5 45t-45 18.5t-45.5 -18.5
t-19 -45z" />
    <glyph glyph-name="sheying" unicode="&#xe63d;" 
d="M1024 4l-310 204h-28v-176h-686v720h686v-192h28l310 204v-760zM128 160h430v176h195l143 -95v286l-143 -95h-195v192h-430v-464z" />
    <glyph glyph-name="zheye" unicode="&#xe63e;" 
d="M967 640l-227 228l-228 -228l-228 228l-227 -228l-57 -57v-683h57l227 228l228 -228l228 228l227 -228h57v683zM128 153v377l19 19l73 74v-378l-26 -27zM348 245v378l73 -73l27 -27v-378l-73 73zM576 145v378l27 26l73 74v-378l-27 -26zM896 153l-66 66l-26 26v378
l73 -74l19 -19v-377z" />
    <glyph glyph-name="zhankai-1" unicode="&#xe63f;" 
d="M1024 808v88h-384v-128h165l-231 -232l90 -90l232 232v-166h128v294v2zM0 -38v-88h384v128h-165l231 231l-90 91l-232 -232v166h-128v-294v-2z" />
    <glyph glyph-name="huatong" unicode="&#xe640;" 
d="M377 320h270q24 0 40.5 15t16.5 36v474q0 21 -16.5 36t-40.5 15h-270q-24 0 -40.5 -15t-16.5 -36v-474q0 -21 16.5 -36t40.5 -15zM448 768h128v-320h-128v320zM768 577v-320h-512v320h-128v-342q0 -45 35 -75.5t86 -30.5h199v-129h-256v-128h640v128h-256v129h199
q51 0 86 30.5t35 75.5v342h-128z" />
    <glyph glyph-name="yuechi" unicode="&#xe641;" 
d="M887 848h-252l-137 -137v-100l-498 -497v-190h427v99h99v100h100v99h62l99 100h100l137 137v252zM896 512l-62 -62h-100l-99 -100h-137v-99h-100v-100h-99v-99h-171v9l498 497v100l62 62h146l62 -62v-146zM762 592zM698 591.5q0 -26.5 18.5 -45t45 -18.5t45.5 18.5t19 45
t-19 45.5t-45.5 19t-45 -19t-18.5 -45.5z" />
    <glyph glyph-name="qianbao" unicode="&#xe642;" 
d="M924 490v182h-99v224h-640l-185 -208v-816h924v266h100v352h-100zM242 768h455v-96h-540zM796 0h-668v544h668v-54h-199v-352h199v-138zM896 266h-171v96h171v-96z" />
    <glyph glyph-name="shoutixiang" unicode="&#xe643;" 
d="M762 639v257h-512v-257h-250v-767h1022v767h-260zM378 768h256v-128h-256v128zM634 511v-511h-256v511h256zM128 511h122v-511h-122v511zM895 0h-133v511h133v-511z" />
    <glyph glyph-name="suoxiao-1" unicode="&#xe644;" 
d="M573 534v-89h384v128h-165l231 232l-90 91l-232 -232v165h-128v-293v-2zM451 234v89h-384v-128h165l-231 -232l90 -91l232 232v-165h128v293v2z" />
    <glyph glyph-name="rili" unicode="&#xe645;" 
d="M221 428h126v-127h-126v127zM442 428h126v-127h-126v127zM663 428h126v-127h-126v127zM221 200h126v-126h-126v126zM442 200h126v-126h-126v126zM663 200h126v-126h-126v126zM379 896h252v-126h-252v126zM884 896h-126v-126h126v-140h-758v140h127v126h-253v-1024h1010
v1024h-126zM884 -2h-758v505h758v-505z" />
    <glyph glyph-name="xiangji" unicode="&#xe646;" 
d="M732 707q-34 57 -92.5 91t-127 34t-127 -34t-92.5 -91h-292v-771h1024v771h-293zM897 64h-768v515h237l37 62q18 30 47 46.5t63 16.5t63 -16.5t46 -46.5l38 -62h237v-515v0zM512.5 512q-79.5 0 -135.5 -56.5t-56 -135.5t56 -135.5t135.5 -56.5t136 56.5t56.5 135.5
t-56.5 135.5t-136 56.5zM512.5 256q-26.5 0 -45 19t-18.5 45t18.5 45t45 19t45.5 -19t19 -45t-19 -45t-45.5 -19z" />
    <glyph glyph-name="biaodan" unicode="&#xe647;" 
d="M313 647h398v-127h-398v127zM313 449h398v-128h-398v128zM100 896v-1022h140l73 72l75 -74h50l74 74l74 -74h50l75 74l73 -72h140v1022h-824zM796 42l-85 85l-100 -99l-99 99l-99 -99l-100 99l-85 -85v726h568v-726v0z" />
    <glyph glyph-name="changbiao" unicode="&#xe648;" 
d="M299 896v-249h-299v-588l187 -187h837v1024h-725zM299 0h-59l-112 112v407h171v-519zM896 0h-469v768h469v-768zM512 697h299v-128h-299v128zM512 498h299v-128h-299v128zM512 299h299v-128h-299v128z" />
    <glyph glyph-name="biaoqian" unicode="&#xe649;" 
d="M768 768v-657l-185 123l-71 48l-71 -47l-185 -124v657h512zM896 896h-768v-1024l384 256l384 -256v1024z" />
    <glyph glyph-name="dianhua" unicode="&#xe64a;" 
d="M475 -128h-310l-165 165v224l123 123h224l42 -43h32l134 134v32l-43 42v224l123 123h224l165 -165v-310zM219 0h202l475 475v202l-91 91h-117l-48 -48v-117l43 -43v-139l-208 -208h-139l-43 43h-117l-48 -48v-117z" />
    <glyph glyph-name="gongjuxiang" unicode="&#xe64b;" 
d="M767 639v257h-511v-257h-256v-767h1022v767h-255zM383 768h256v-128h-256v128zM895 511v-192h-320v64h-128v-64h-319v192h767zM128 0v192h319v-64h128v64h320v-192h-767v0z" />
    <glyph glyph-name="kongbaiwendang" unicode="&#xe665;" 
d="M650 896h-586v-1024h896v698zM778 576h-138v145zM192 0v768h320v-320h320v-448h-640z" />
    <glyph glyph-name="kuangjia" unicode="&#xe666;" 
d="M1024 512v384h-384v-109h-256v109h-384v-384h128v-256h-128v-384h384v147h256v-147h384v384h-128v256h128zM768 768h128v-128h-128v128zM128 768h128v-128h-128v128zM256 0h-128v128h128v-128zM896 0h-128v128h128v-128zM768 256h-128v-109h-256v109h-128v256h128v147
h256v-147h128v-256z" />
    <glyph glyph-name="liucheng" unicode="&#xe667;" 
d="M896 256v128h-1v64h-322v64h128v384h-384v-384h128v-64h-331v-192h-114v-384h384v384h-142v64h526v-64h-128v-384h384v384h-128zM445 768h128v-128h-128v128zM256 0h-128v128h128v-128zM896 0h-128v128h128v-128z" />
    <glyph glyph-name="dayin" unicode="&#xe668;" 
d="M1021 702h-191v194h-639v-194h-191v-511h191v-319h639v319h191v511zM319 768h383v-66h-383v66zM702 0h-383v383h383v-383v0zM893 319h-63v191h-639v-191h-63v255h765v-255zM383 289h255v-64h-255v64zM383 160h255v-64h-255v64z" />
    <glyph glyph-name="moban" unicode="&#xe669;" 
d="M0 895v-383h1020v383h-1020zM893 640h-765v127h765v-127zM1 -123h383v510h-383v-510zM129 259h127v-255h-127v255zM509 0h510v-128h-510v128zM509 372h510v-128h-510v128zM509 186h510v-128h-510v128z" />
    <glyph glyph-name="dingdan" unicode="&#xe66a;" 
d="M0 896v-1024h787l237 237v787h-1024zM896 162l-162 -162h-606v768h768v-606zM263 249h249v-128h-249v128zM263 448h498v-128h-498v128zM263 647h498v-128h-498v128z" />
    <glyph glyph-name="erweima" unicode="&#xe66b;" horiz-adv-x="1026" 
d="M134 768h255v128h-383v-303h128v175zM896 896h-255v-128h255v-175h128v303h-128zM896 0h-255v-128h383v319h-128v-191zM134 191h-128v-319h383v128h-255v191zM0 452h1022v-128h-1022v128z" />
    <glyph glyph-name="fenxiang" unicode="&#xe66c;" 
d="M954 193v382h-343l-163 163v158h-382v-382h382v44l123 -123h1v-102l-1 1l-123 -123v43h-382v-382h382v159l163 162h343zM321 641h-127v128h127v-128zM321 -1h-127v128h127v-128zM699 448h127v-128h-127v128z" />
    <glyph glyph-name="duankai" unicode="&#xe66d;" 
d="M539 121h-539v526h313v-128h-185v-270h357l54 53l90 -91zM1024 121h-263v128h135v270h-308l-67 -67l-90 91l104 104h489v-526zM307 425l90 90l91 -90l-91 -91zM568 334l91 91l90 -91l-90 -90z" />
    <glyph glyph-name="guanlian" unicode="&#xe66e;" 
d="M597 361l-112 -112h-357v270h185v128h-313v-526h539l186 187v126h-128v-73zM535 647l-236 -236v-77h128v23l161 162h308v-270h-135v-128h263v526h-489z" />
    <glyph glyph-name="hongqi" unicode="&#xe66f;" 
d="M864 576l128 320h-928v-1024h128v384h800zM746 529l57 -145h-611v384h611l-57 -145l-19 -47z" />
    <glyph glyph-name="yunying" unicode="&#xe64d;" 
d="M1024 770h-448v121h-128v-121h-448v-640h430l-165 -165l91 -90l156 156l156 -156l91 90l-165 165h430v640zM896 258h-768v384h768v-384zM378 516l231 -232l171 170l-45 46l-126 -125l-231 232l-134 -134l45 -45z" />
    <glyph glyph-name="sousuorizhi" unicode="&#xe64e;" 
d="M793 179q39 50 67 130t28 143v0q0 90 -35.5 172.5t-95 142t-141.5 94.5t-172 35t-172 -35t-141.5 -94.5t-95 -142t-35.5 -172.5t35.5 -172t95 -141.5t141.5 -94.5t172 -35v0q59 0 134.5 24t123.5 59l218 -218l90 89zM444 135q-131 0 -224 93t-93 224.5t93 224t224 92.5
t224 -92.5t93 -224t-93 -224.5t-224 -93zM255 617h383v-63h-383v63zM255 490h383v-64h-383v64zM255 362h383v-64h-383v64z" />
    <glyph glyph-name="anquan" unicode="&#xe64f;" 
d="M523 761l319 -89v-377q-58 -81 -119 -148q-71 -78 -123.5 -112.5t-76.5 -34.5t-77 34.5t-124 112.5q-61 67 -119 148v377zM523 894l-447 -125v-514q5 -8 14.5 -21.5t39.5 -53.5t60 -76t74 -80.5t84.5 -76t87.5 -53.5t87 -22t86 21t88 55t83.5 75t75 81.5t59.5 75t40.5 55
l14.5 20.5v514z" />
    <glyph glyph-name="cdp" unicode="&#xe650;" 
d="M336 38q-91 0 -168.5 45t-122.5 122t-45 168t45 168.5t122.5 122.5t168 45t168 -45t122.5 -122t45 -168l2 -90q0 -47 28.5 -82t77.5 -35q48 0 82.5 34t34.5 82.5t-34.5 83t-82.5 34.5q-23 0 -44 -9l-49 118q44 19 93 19v0q101 0 173 -72t72 -173.5t-72 -173t-173 -71.5
q-100 0 -166.5 69.5t-67.5 174.5l-2 90q0 86 -61 147t-146.5 61t-146.5 -61t-61 -147t61 -146.5t147 -60.5q87 0 148 62l49 -76q20 -35 15 -39q-92 -75 -212 -75z" />
    <glyph glyph-name="shujubiao" unicode="&#xe651;" 
d="M1 255h128v-383h-128v383zM299 383h127v-511h-127v511zM596 255h128v-383h-128v383zM894 511h128v-639h-128v639zM657 506l-287 262l-369 -232v-151l354 223l308 -280l359 371v183z" />
    <glyph glyph-name="lianjie-1" unicode="&#xe652;" 
d="M915 231q4 29 4 57q0 120 -63.5 220t-168.5 152q6 24 6 46q0 79 -55.5 134.5t-134 55.5t-134 -55.5t-55.5 -134.5q0 -22 5 -46q-104 -52 -167.5 -152t-63.5 -220q0 -30 4 -60q-42 -25 -67 -68t-25 -94q0 -78 55.5 -133.5t134.5 -55.5q68 0 120 43q38 -20 94.5 -34
t98.5 -14v0q105 0 197 49q21 -18 57 -31t65 -13v0q78 0 134 55.5t56 133.5q0 53 -26.5 97t-70.5 68zM503 770q26 0 44.5 -18.5t18.5 -45t-18.5 -45t-44.5 -18.5t-44.5 18.5t-18.5 45t18.5 45t44.5 18.5zM127 66q0 26 18.5 45t44.5 19t44.5 -19t18.5 -45t-18.5 -44.5
t-44.5 -18.5t-44.5 18.5t-18.5 44.5zM376 28q4 19 4 38q0 72 -47 125t-117 63q-2 17 -2 34q0 88 49 160t128 106q21 -15 53.5 -26t58.5 -11t59 11t54 26q79 -34 127.5 -106t48.5 -160q0 -16 -2 -35q-68 -11 -113 -64t-45 -123q0 -17 4 -35q-26 -14 -64.5 -23.5t-67.5 -9.5
h-1q-67 0 -127 30zM822 3q-26 0 -44.5 18.5t-18.5 44.5t18.5 45t44.5 19t44.5 -19t18.5 -45t-18.5 -44.5t-44.5 -18.5z" />
    <glyph glyph-name="gongsi" unicode="&#xe653;" horiz-adv-x="1026" 
d="M768 384v512h-768v-1024h1027v512h-259zM640 0h-512v768h512v-768zM899 0h-128v256h128v-256zM189 704h128v-128h-128v128zM445 704h128v-128h-128v128zM189 448h128v-128h-128v128zM445 448h128v-128h-128v128zM189 192h128v-128h-128v128zM445 192h128v-128h-128v128z
" />
    <glyph glyph-name="edas" unicode="&#xe654;" 
d="M512 881l-512 -192l512 -208l511 208zM352 684l160 60l160 -60l-160 -65zM575 -128l448 261v444l-448 -176v-529zM703 314l192 75v-182l-192 -112v219zM0 133l448 -261v513l-448 192v-444v0zM128 383l192 -82v-206l-192 112v176z" />
    <glyph glyph-name="jiaohuan" unicode="&#xe655;" 
d="M889 258h-263l-242 387v2h-384v-128h312l241 -387v0v-2h336v-72l136 136l-136 135v-71zM545 477l49 33h295v-71l136 135l-136 136v-72h-336v0l-81 -56zM388 291l-48 -33h-340v-128h384v2l77 54z" />
    <glyph glyph-name="shenhe" unicode="&#xe656;" 
d="M576 386v136q57 20 92.5 69.5t35.5 111.5q0 80 -56 136t-136 56t-136 -56t-56 -136q0 -62 35.5 -111.5t92.5 -69.5v-136h-448v-320h1024v320h-448zM512 767q26 0 45 -18.5t19 -45t-19 -45.5t-45 -19t-45 19t-19 45.5t19 45t45 18.5zM896 194h-768v64h768v-64zM0 1h1024
v-128h-1024v128z" />
    <glyph glyph-name="chexiao" unicode="&#xe657;" 
d="M896 528h-636l117 117l-91 91l-271 -272l90 -90l181 -181l91 90l-117 117h636v-384h128v512h-128z" />
    <glyph glyph-name="guanji" unicode="&#xe658;" 
d="M704 860v-142q88 -51 140 -139.5t52 -192.5q0 -105 -51.5 -193.5t-140 -139.5t-192.5 -51t-192.5 51t-140 139.5t-51.5 193.5q0 104 52 192.5t140 139.5v142q-143 -58 -231.5 -187t-88.5 -287q0 -105 40.5 -199.5t109 -163t163.5 -109t199 -40.5t199 40.5t163.5 109
t109 163t40.5 199.5q0 158 -88.5 287t-231.5 187zM448 894h128v-384h-128v384z" />
    <glyph glyph-name="yuanhuantu" unicode="&#xe659;" horiz-adv-x="1027" 
d="M3 383q0 -128 59 -239.5t161.5 -182t227.5 -86.5v129q-137 24 -228.5 131t-91.5 248t91.5 248t228.5 131v129q-125 -16 -227.5 -86.5t-161.5 -182t-59 -239.5zM829 787q-46 36 -119 66.5t-131 37.5v-129q36 -7 82.5 -26t76.5 -40zM920 697l-92 -92q30 -41 50.5 -106
t20.5 -116v0q0 -141 -91.5 -248t-228.5 -131v-129q125 16 227.5 86.5t161.5 182t59 239.5v1q0 72 -31.5 164t-75.5 149z" />
    <glyph glyph-name="bingtu" unicode="&#xe65a;" horiz-adv-x="1025" 
d="M448 4q-132 0 -226 94t-94 226t94 226t226 94v128q-185 0 -316.5 -131.5t-131.5 -316.5t131.5 -316.5t316.5 -131.5t316.5 131.5t131.5 316.5h-128q0 -132 -94 -226t-226 -94zM569 893h-64v-512h512v64q0 91 -35.5 174t-95.5 143t-143 95.5t-174 35.5zM633 509v250
q94 -19 162.5 -87.5t87.5 -162.5h-250z" />
    <glyph glyph-name="tiaoxingtu" unicode="&#xe65b;" 
d="M272 879h511v-128h-511v128zM272 581h383v-128h-383v128zM272 283h639v-128h-639v128zM128 0v895h-128v-1023h1023v128h-895z" />
    <glyph glyph-name="zhexiantu" unicode="&#xe65c;" 
d="M128 0v896h-128v-1024h1024v128h-896zM417 473l176 -176l381 381l-91 91l-290 -291l-176 176l-268 -267l91 -91z" />
    <glyph glyph-name="gongzuoliu" unicode="&#xe65d;" 
d="M960 894h-896q-26 0 -45 -18.5t-19 -45.5v-640q0 -26 19 -45t45 -19h384v-121h-320v-128h768v128h-320v121h384q26 0 45 19t19 45v640q0 27 -19 45.5t-45 18.5zM896 254h-768v512h768v-512zM256 646h128v-340h-128v340zM448 561h128v-255h-128v255zM640 478h128v-172
h-128v172z" />
    <glyph glyph-name="houtui" unicode="&#xe65e;" 
d="M686 -65l86 90l-342 358l342 359l-86 89l-341 -358l-85 -90l85 -89z" />
    <glyph glyph-name="gengduo" unicode="&#xe65f;" 
d="M512 768q159 0 271.5 -112.5t112.5 -271.5t-112.5 -271.5t-271.5 -112.5t-271.5 112.5t-112.5 271.5t112.5 271.5t271.5 112.5zM512 896q-139 0 -257 -68.5t-186.5 -186.5t-68.5 -257t68.5 -257t186.5 -186.5t257 -68.5t257 68.5t186.5 186.5t68.5 257t-68.5 257
t-186.5 186.5t-257 68.5zM192 448h128v-128h-128v128zM448 448h128v-128h-128v128zM704 448h128v-128h-128v128z" />
    <glyph glyph-name="zhuzhuangtu" unicode="&#xe660;" 
d="M268 580h128v-512h-128v512zM518 452h128v-384h-128v384zM768 708h128v-640h-128v640zM128 0v896h-128v-1024h1024v128h-896z" />
    <glyph glyph-name="shujuliu" unicode="&#xe661;" 
d="M998 567.5q0 97.5 -64 170t-158 83.5v74h-512v-287h512v83q42 -10 69 -44.5t27 -79t-27 -79t-69 -44.5v84h-512v-75q-95 -9 -160 -82t-65 -171.5t65 -171t160 -82.5v-74h512v288h-512v-85q-43 9 -71.5 44t-28.5 80.5t28.5 80.5t71.5 44v-84h512v74q94 11 158 83.5t64 170
zM648 735h-256v32h256v-32zM392 32h256v-32h-256v32zM648 368h-256v32h256v-32z" />
    <glyph glyph-name="ditu" unicode="&#xe662;" 
d="M901 639q-11 117 -100.5 187t-217 70t-217 -70t-101.5 -187h-265v-767h1023v767h-122v0zM583 768q50 0 92.5 -16t71 -53.5t28.5 -90.5q0 -23 -30.5 -81t-98.5 -142q-31 -37 -63 -72q-31 34 -60 70q-70 85 -100.5 143.5t-30.5 81.5q0 53 28.5 90.5t70.5 53.5t92 16zM895 0
h-767v511h160q20 -48 58.5 -105t78 -104t76 -87t59.5 -63l23 -23q9 9 24.5 24t57.5 60.5t78.5 89.5t75.5 102t60 106h16v-511v0zM575 613zM511 613v0q0 -27 19 -45.5t45.5 -18.5t45 18.5t18.5 45.5v0v0q0 26 -18.5 45t-45 19t-45.5 -19t-19 -45v0z" />
    <glyph glyph-name="houtuidaodi" unicode="&#xe663;" 
d="M750 -65l86 90l-342 358l342 359l-86 89l-341 -358l-85 -90l85 -89zM196 767h128v-768h-128v768z" />
    <glyph glyph-name="duijitu" unicode="&#xe664;" 
d="M256 879h192v-128h-192v128zM512 879h327v-128h-327v128zM256 581h290v-128h-290v128zM610 581h52v-128h-52v128zM256 283h279v-128h-279v128zM599 283h397v-128h-397v128zM128 0v895h-128v-1023h1023v128h-895z" />
    <glyph glyph-name="qianjin" unicode="&#xe670;" 
d="M345 831l-85 -89l341 -359l-341 -358l85 -90l341 359l86 89l-86 90z" />
    <glyph glyph-name="lishijilu" unicode="&#xe671;" 
d="M0 830h1024v-128h-1024v128zM0 446h346v-128h-346v128zM0 62h424v-128h-424v128zM724 406q71 0 121.5 -50.5t50.5 -121.5t-50.5 -121.5t-121.5 -50.5t-121.5 50.5t-50.5 121.5t50.5 121.5t121.5 50.5zM724 534q-124 0 -212 -88t-88 -212t88 -212t212 -88t212 88t88 212
t-88 212t-212 88zM829 202h-137v173h64v-109h73v-64z" />
    <glyph glyph-name="leidatu" unicode="&#xe672;" 
d="M1022 412q-6 128 -71 235.5t-172.5 173t-234.5 73.5v1h-64v-1q-128 -8 -235 -73.5t-172 -173t-72 -235.5h-1v-64h1q9 -126 74 -232t172 -170.5t233 -72.5v-1h64v1q126 8 232.5 72.5t171.5 170.5t74 232h1v64h-1zM894 412h-128q-6 51 -31 97q9 15 9 33q0 26 -18.5 45
t-45.5 19q-15 0 -29 -8q-21 13 -52 24.5t-55 14.5v129q140 -12 240 -112.5t110 -241.5zM480 507q-32 -8 -59 -36t-34 -59h-42q-7 12 -19 21q15 54 56.5 92t97.5 48v-66v0zM345 348h44q8 -29 35 -55t56 -33v-65q-49 8 -93.5 47.5t-58.5 86.5q10 8 17 19zM544 260
q29 7 55.5 33t34.5 55h66q-10 -54 -56 -99t-100 -54v65zM636 412q-7 31 -34 59t-58 36v66q39 -7 73 -29l-0.5 -1l-0.5 -1q0 -26 18.5 -44.5t43.5 -19.5q18 -31 23 -66h-65v0zM480 766v-129q-75 -9 -139 -67.5t-80 -132.5q-17 -9 -26 -25h-106q10 141 110 241.5t241 112.5z
M130 348h105q10 -18 29 -26q19 -76 78 -129t138 -63v-129q-139 12 -238.5 110.5t-111.5 236.5zM544 1v129q85 11 147 72t74 146h129q-13 -138 -112.5 -236.5t-237.5 -110.5z" />
    <glyph glyph-name="qianjindaodi" unicode="&#xe673;" 
d="M281 831l-85 -89l341 -359l-341 -358l85 -90l341 359l86 89l-86 90zM708 767h128v-768h-128v768z" />
    <glyph glyph-name="sandiantu" unicode="&#xe674;" 
d="M127 -1v891h-127v-1018h1018v127h-891zM584 607zM520 607v0q0 -27 19 -45.5t45.5 -18.5t45 18.5t18.5 45.5v0v0q0 26 -18.5 44.5t-45 18.5t-45.5 -18.5t-19 -44.5v0zM801 479zM674 479.5q0 -52.5 37 -90t90 -37.5t90 37.5t37 90t-37 90t-90 37.5t-90 -37.5t-37 -90z
M332 330zM204 330q0 -53 37.5 -90t90 -37t90 37t37.5 90t-37.5 90t-90 37t-90 -37t-37.5 -90zM594 203zM499 202.5q0 -39.5 28 -67.5t67.5 -28t67.5 28t28 67.5t-28 67.5t-67.5 28t-67.5 -28t-28 -67.5z" />
    <glyph glyph-name="quxiaoguanzhu" unicode="&#xe675;" 
d="M957 724l43 43l-91 90l-52 -51q-27 14 -67 24t-70 10q-103 0 -208 -101q-105 101 -208 101q-126 0 -215 -91t-89 -219q0 -109 100 -230q2 -2 129 -120l-69 -69l90 -91l73 72q43 -40 90 -84t72.5 -68l25.5 -24q406 378 410 382q103 105 103 232q0 109 -67 194zM195 387
q-67 81 -67 143q0 75 51.5 128.5t124.5 53.5q52 0 119 -65l89 -85l89 85q67 65 119 65q19 0 38 -5l-438 -437q-105 98 -125 117zM831 389q-22 -21 -320 -298l-98 92l452 450q12 -20 21.5 -50t9.5 -53v0q0 -74 -65 -141z" />
    <glyph glyph-name="circle" unicode="&#xe678;" 
d="M512 896q-139 0 -257 -68.5t-186.5 -186.5t-68.5 -257t68.5 -257t186.5 -186.5t257 -68.5t257 68.5t186.5 186.5t68.5 257t-68.5 257t-186.5 186.5t-257 68.5zM512 0q-159 0 -271.5 112.5t-112.5 271.5t112.5 271.5t271.5 112.5t271.5 -112.5t112.5 -271.5t-112.5 -271.5
t-271.5 -112.5zM512 576q79 0 135.5 -56.5t56.5 -135.5t-56.5 -135.5t-135.5 -56.5t-135.5 56.5t-56.5 135.5t56.5 135.5t135.5 56.5z" />
  </font>
</defs>
</svg>
